<svg width="210" height="157" viewBox="0 0 210 157" fill="none" xmlns="http://www.w3.org/2000/svg">
<path d="M209.681 137.947H0.318359V138.052H209.681V137.947Z" fill="#E0E0E0"/>
<path d="M159.153 141.808H144.749V141.913H159.153V141.808Z" fill="#E0E0E0"/>
<path d="M176.099 141.511H167.992V141.615H176.099V141.511Z" fill="#E0E0E0"/>
<path d="M103.886 141.758H93.1328V141.862H103.886V141.758Z" fill="#E0E0E0"/>
<path d="M111.653 143.244H104.309V143.349H111.653V143.244Z" fill="#E0E0E0"/>
<path d="M60.8952 140.699H38.707V140.803H60.8952V140.699Z" fill="#E0E0E0"/>
<path d="M99.5556 119.272H18.7041C18.0707 119.271 17.4637 119.019 17.0162 118.57C16.5687 118.122 16.3174 117.515 16.3174 116.881V3.22691C16.3229 2.59716 16.5767 1.99502 17.0235 1.55127C17.4704 1.10752 18.0743 0.858012 18.7041 0.856934H99.5556C100.19 0.856934 100.798 1.10883 101.246 1.55722C101.695 2.0056 101.947 2.61374 101.947 3.24785V116.881C101.947 117.515 101.695 118.124 101.246 118.572C100.798 119.02 100.19 119.272 99.5556 119.272ZM18.7041 0.940679C18.0985 0.941788 17.5181 1.18315 17.0902 1.61178C16.6624 2.04041 16.4221 2.62129 16.4221 3.22691V116.881C16.4221 117.487 16.6624 118.068 17.0902 118.496C17.5181 118.925 18.0985 119.166 18.7041 119.168H99.5556C100.162 119.166 100.743 118.925 101.171 118.497C101.6 118.068 101.841 117.487 101.842 116.881V3.22691C101.841 2.62091 101.6 2.04004 101.171 1.61152C100.743 1.18301 100.162 0.941786 99.5556 0.940679H18.7041Z" fill="#E0E0E0"/>
<path d="M190.13 119.272H109.275C108.641 119.271 108.033 119.019 107.585 118.571C107.137 118.123 106.885 117.515 106.884 116.881V3.22691C106.89 2.59678 107.145 1.99464 107.593 1.55101C108.04 1.10738 108.645 0.858001 109.275 0.856934H190.13C190.759 0.859113 191.362 1.10911 191.808 1.55274C192.254 1.99637 192.507 2.59789 192.513 3.22691V116.881C192.513 117.514 192.262 118.121 191.816 118.569C191.369 119.017 190.763 119.27 190.13 119.272ZM109.275 0.940679C108.669 0.941786 108.088 1.18301 107.659 1.61152C107.231 2.04004 106.99 2.62091 106.988 3.22691V116.881C106.99 117.487 107.231 118.068 107.659 118.497C108.088 118.925 108.669 119.166 109.275 119.168H190.13C190.736 119.166 191.317 118.925 191.746 118.497C192.174 118.068 192.416 117.487 192.417 116.881V3.22691C192.416 2.62091 192.174 2.04004 191.746 1.61152C191.317 1.18301 190.736 0.941786 190.13 0.940679H109.275Z" fill="#E0E0E0"/>
<path d="M182.058 11.0195H118.956V65.2695H182.058V11.0195Z" fill="#E0E0E0"/>
<path d="M183.46 11.0195H120.358V65.2695H183.46V11.0195Z" fill="#F0F0F0"/>
<path d="M180.943 62.7237V13.5654L122.875 13.5654V62.7237L180.943 62.7237Z" fill="#FAFAFA"/>
<path d="M162.386 62.7237V13.5654H158.592V62.7237H162.386Z" fill="#E0E0E0"/>
<path d="M142.43 62.7237V13.5654H138.636V62.7237H142.43Z" fill="#E0E0E0"/>
<path d="M163.722 64.3356V11.6685H159.928V64.3356H163.722Z" fill="#F0F0F0"/>
<path d="M143.761 64.34V11.6729H139.967V64.34H143.761Z" fill="#F0F0F0"/>
<path d="M180.943 62.7193V13.561H179.884V62.7193H180.943Z" fill="#E0E0E0"/>
<path d="M74.575 53.8636C74.575 53.8636 66.8956 40.6361 77.5522 30.0884C77.5522 30.0884 80.3325 31.9015 80.2906 34.3384C80.2488 36.7754 77.3093 37.3909 77.9416 39.4259C78.5739 41.4609 81.3416 43.4499 79.5244 45.1332C77.7071 46.8164 79.8175 48.3071 79.696 50.3672C79.5746 52.4273 74.575 53.8636 74.575 53.8636Z" fill="#E0E0E0"/>
<path d="M75.7811 56.0282C75.7811 56.0282 78.8965 41.0462 65.4638 34.4053C65.4638 34.4053 63.3953 37.0014 64.2076 39.3002C65.0199 41.599 67.9971 41.2556 68.0389 43.3869C68.0808 45.5182 66.0835 48.2818 68.3362 49.3035C70.589 50.3252 69.0606 52.4104 69.8269 54.3282C70.5932 56.2459 75.7811 56.0282 75.7811 56.0282Z" fill="#E6E6E6"/>
<path d="M68.9434 52.2222C68.9434 52.2222 69.0774 65.1566 74.2486 65.1566C79.4198 65.1566 79.5497 52.2222 79.5497 52.2222H68.9434Z" fill="#F0F0F0"/>
<path d="M37.874 60.2905C37.874 60.2905 38.1629 65.1561 49.2047 65.1561C60.2465 65.1561 60.5396 60.2905 60.5396 60.2905H37.874Z" fill="#E6E6E6"/>
<path d="M154.283 89.6265H148.454C147.728 89.6265 147.14 90.2151 147.14 90.9413V100.58C147.14 101.306 147.728 101.895 148.454 101.895H154.283C155.009 101.895 155.598 101.306 155.598 100.58V90.9413C155.598 90.2151 155.009 89.6265 154.283 89.6265Z" fill="#F0F0F0"/>
<path d="M169.742 93.6382H165.819C165.331 93.6382 164.936 94.0338 164.936 94.5217V101.012C164.936 101.5 165.331 101.895 165.819 101.895H169.742C170.23 101.895 170.626 101.5 170.626 101.012V94.5217C170.626 94.0338 170.23 93.6382 169.742 93.6382Z" fill="#E6E6E6"/>
<path d="M170.329 92.8384H165.233C165.069 92.8384 164.936 92.9715 164.936 93.1357V93.4706C164.936 93.6348 165.069 93.7679 165.233 93.7679H170.329C170.493 93.7679 170.626 93.6348 170.626 93.4706V93.1357C170.626 92.9715 170.493 92.8384 170.329 92.8384Z" fill="#F0F0F0"/>
<path d="M133.648 95.0698C133.648 95.0698 133.858 101.895 141.851 101.895C149.845 101.895 150.058 95.0698 150.058 95.0698H133.648Z" fill="#E6E6E6"/>
<path d="M113.767 86.0547H125.864V83.668H113.767V86.0547Z" fill="#E0E0E0"/>
<path d="M186.006 83.6724H125.864V86.0591H186.006V83.6724Z" fill="#F0F0F0"/>
<path d="M113.767 104.282H125.864V101.895H113.767V104.282Z" fill="#E0E0E0"/>
<path d="M186.006 101.896H125.864V104.282H186.006V101.896Z" fill="#F0F0F0"/>
<path d="M118.126 86.0547H115.895V137.943H118.126V86.0547Z" fill="#E0E0E0"/>
<path d="M128.096 86.0547H125.864V137.943H128.096V86.0547Z" fill="#F0F0F0"/>
<path d="M178.268 86.0547H176.036V137.943H178.268V86.0547Z" fill="#E0E0E0"/>
<path d="M186.006 86.0547H183.774V137.943H186.006V86.0547Z" fill="#F0F0F0"/>
<path d="M37.8741 68.1919H26.4346V134.807H37.8741V68.1919Z" fill="#E6E6E6"/>
<path d="M85.0434 134.803H28.6328V137.947H85.0434V134.803Z" fill="#E6E6E6"/>
<path d="M37.8739 134.803H87.2373L87.2373 68.1879H37.8739L37.8739 134.803Z" fill="#F0F0F0"/>
<path d="M42.371 109.633H82.7402V93.3617H42.371V109.633Z" fill="#E6E6E6"/>
<path d="M42.371 128.869H82.7402V112.597H42.371V128.869Z" fill="#E6E6E6"/>
<path d="M67.0884 95.1454H58.023C57.7279 95.1443 57.4453 95.0266 57.2366 94.8179C57.028 94.6093 56.9103 94.3266 56.9092 94.0316C56.9092 93.7358 57.0264 93.452 57.2352 93.2425C57.4439 93.033 57.7272 92.9147 58.023 92.9136H67.0884C67.3842 92.9147 67.6674 93.033 67.8762 93.2425C68.085 93.452 68.2022 93.7358 68.2022 94.0316C68.2011 94.3266 68.0834 94.6093 67.8747 94.8179C67.6661 95.0266 67.3834 95.1443 67.0884 95.1454Z" fill="#F0F0F0"/>
<path d="M42.371 90.3931H82.7402V74.1214H42.371V90.3931Z" fill="#E6E6E6"/>
<path d="M67.0884 75.909H58.023C57.7272 75.9079 57.4439 75.7897 57.2352 75.5801C57.0264 75.3706 56.9092 75.0868 56.9092 74.7911C56.9103 74.496 57.028 74.2133 57.2366 74.0047C57.4453 73.796 57.7279 73.6783 58.023 73.6772H67.0884C67.3834 73.6783 67.6661 73.796 67.8747 74.0047C68.0834 74.2133 68.2011 74.496 68.2022 74.7911C68.2022 75.0868 68.085 75.3706 67.8762 75.5801C67.6674 75.7897 67.3842 75.9079 67.0884 75.909Z" fill="#F0F0F0"/>
<path d="M67.0884 114.381H58.023C57.7279 114.38 57.4453 114.262 57.2366 114.054C57.028 113.845 56.9103 113.562 56.9092 113.267C56.9092 112.972 57.0264 112.688 57.2352 112.478C57.4439 112.269 57.7272 112.151 58.023 112.149H67.0884C67.3842 112.151 67.6674 112.269 67.8762 112.478C68.085 112.688 68.2022 112.972 68.2022 113.267C68.2011 113.562 68.0834 113.845 67.8747 114.054C67.6661 114.262 67.3834 114.38 67.0884 114.381Z" fill="#F0F0F0"/>
<path d="M88.7616 65.1562H37.874V68.192H88.7616V65.1562Z" fill="#E6E6E6"/>
<path d="M24.8349 68.1875H37.874V65.1517H24.8349V68.1875Z" fill="#E0E0E0"/>
<path d="M50.6238 13.5654H32.1162V33.8903H50.6238V13.5654Z" fill="#E6E6E6"/>
<path d="M52.6297 13.5654H33.5107V33.8903H52.6297V13.5654Z" fill="#F0F0F0"/>
<path d="M51.0254 32.2862V15.1646L35.1097 15.1646V32.2862H51.0254Z" fill="#FAFAFA"/>
<path d="M47.1699 28.137V19.3145H38.9713V28.137H47.1699Z" fill="#F0F0F0"/>
<path d="M70.1362 7.56494H56.1006V22.6432H70.1362V7.56494Z" fill="#E6E6E6"/>
<path d="M71.6275 7.56494H57.4453V22.6432H71.6275V7.56494Z" fill="#F0F0F0"/>
<path d="M70.4375 21.4538V8.75391H58.6337V21.4538H70.4375Z" fill="#FAFAFA"/>
<path d="M64.534 11.8901L61.3057 17.4843H67.7624L64.534 11.8901Z" fill="#F0F0F0"/>
<path d="M104.999 156.857C149.837 156.857 186.186 154.735 186.186 152.117C186.186 149.499 149.837 147.377 104.999 147.377C60.1609 147.377 23.8125 149.499 23.8125 152.117C23.8125 154.735 60.1609 156.857 104.999 156.857Z" fill="#F5F5F5"/>
<path d="M113.178 71.4619H92.7773C92.5044 71.4619 92.2832 71.6831 92.2832 71.956V72.6972C92.2832 72.97 92.5044 73.1912 92.7773 73.1912H113.178C113.45 73.1912 113.672 72.97 113.672 72.6972V71.956C113.672 71.6831 113.45 71.4619 113.178 71.4619Z" fill="#FAFAFA"/>
<path d="M106.683 75.624H92.7773C92.5044 75.624 92.2832 75.8452 92.2832 76.1181V76.8593C92.2832 77.1321 92.5044 77.3534 92.7773 77.3534H106.683C106.956 77.3534 107.177 77.1321 107.177 76.8593V76.1181C107.177 75.8452 106.956 75.624 106.683 75.624Z" fill="#FAFAFA"/>
<path d="M113.178 79.7905H92.7773C92.5044 79.7905 92.2832 80.0117 92.2832 80.2846V81.0258C92.2832 81.2987 92.5044 81.5199 92.7773 81.5199H113.178C113.45 81.5199 113.672 81.2987 113.672 81.0258V80.2846C113.672 80.0117 113.45 79.7905 113.178 79.7905Z" fill="#FAFAFA"/>
<path d="M100.36 83.9521H92.7773C92.5044 83.9521 92.2832 84.1734 92.2832 84.4462V85.1874C92.2832 85.4603 92.5044 85.6815 92.7773 85.6815H100.36C100.633 85.6815 100.854 85.4603 100.854 85.1874V84.4462C100.854 84.1734 100.633 83.9521 100.36 83.9521Z" fill="#FAFAFA"/>
<path d="M110.971 83.9521H103.388C103.115 83.9521 102.894 84.1734 102.894 84.4462V85.1874C102.894 85.4603 103.115 85.6815 103.388 85.6815H110.971C111.244 85.6815 111.465 85.4603 111.465 85.1874V84.4462C111.465 84.1734 111.244 83.9521 110.971 83.9521Z" fill="#FAFAFA"/>
<path d="M113.178 88.1191H92.7773C92.5044 88.1191 92.2832 88.3404 92.2832 88.6132V89.3544C92.2832 89.6273 92.5044 89.8485 92.7773 89.8485H113.178C113.45 89.8485 113.672 89.6273 113.672 89.3544V88.6132C113.672 88.3404 113.45 88.1191 113.178 88.1191Z" fill="#FAFAFA"/>
<path d="M113.178 92.2812H92.7773C92.5044 92.2812 92.2832 92.5025 92.2832 92.7753V93.5165C92.2832 93.7894 92.5044 94.0106 92.7773 94.0106H113.178C113.45 94.0106 113.672 93.7894 113.672 93.5165V92.7753C113.672 92.5025 113.45 92.2812 113.178 92.2812Z" fill="#FAFAFA"/>
<path d="M109.56 96.4473H92.7773C92.5044 96.4473 92.2832 96.6685 92.2832 96.9414V97.6825C92.2832 97.9554 92.5044 98.1766 92.7773 98.1766H109.56C109.833 98.1766 110.054 97.9554 110.054 97.6825V96.9414C110.054 96.6685 109.833 96.4473 109.56 96.4473Z" fill="#FAFAFA"/>
<path d="M100.607 100.609H92.7773C92.5044 100.609 92.2832 100.831 92.2832 101.103V101.845C92.2832 102.117 92.5044 102.339 92.7773 102.339H100.607C100.88 102.339 101.102 102.117 101.102 101.845V101.103C101.102 100.831 100.88 100.609 100.607 100.609Z" fill="#FAFAFA"/>
<path d="M118.923 72.7979H96.1314C95.7892 72.7979 95.5117 73.0753 95.5117 73.4176V74.5732C95.5117 74.9155 95.7892 75.193 96.1314 75.193H118.923C119.265 75.193 119.542 74.9155 119.542 74.5732V73.4176C119.542 73.0753 119.265 72.7979 118.923 72.7979Z" fill="#FAFAFA"/>
<path d="M149.385 62.5303C149.74 62.8653 150.021 63.15 150.314 63.4682C150.607 63.7864 150.884 64.0963 151.152 64.4187C151.696 65.0594 152.207 65.7335 152.701 66.4119C153.688 67.7726 154.566 69.2091 155.326 70.708L155.481 71.0136C155.557 71.1616 155.62 71.3157 155.67 71.4742C155.771 71.7806 155.833 72.0986 155.854 72.4206C155.881 72.9883 155.803 73.5561 155.624 74.0955C155.318 74.9913 154.863 75.8292 154.279 76.5743C153.227 77.9256 151.986 79.1186 150.595 80.1167L149.552 78.9192C150.042 78.3455 150.553 77.73 151.009 77.1145C151.474 76.5181 151.893 75.8883 152.265 75.2302C152.613 74.656 152.87 74.0318 153.027 73.3794C153.082 73.1461 153.092 72.9046 153.057 72.6676C153.042 72.5879 153.016 72.5104 152.981 72.4373C152.966 72.4052 152.948 72.3744 152.927 72.3452L152.793 72.1191C151.985 70.8023 151.109 69.529 150.168 68.3045C149.703 67.689 149.204 67.0986 148.702 66.5165C148.455 66.2234 148.2 65.9387 147.944 65.654C147.689 65.3692 147.412 65.0845 147.19 64.8626L149.385 62.5303Z" fill="#E4897B"/>
<path d="M149.954 78.5675L146.826 78.0566L148.463 80.7951C148.463 80.7951 150.477 80.7239 151.051 79.5389L149.954 78.5675Z" fill="#E4897B"/>
<path d="M144.515 79.3212L146.005 81.5446L148.463 80.7951L146.826 78.0566L144.515 79.3212Z" fill="#E4897B"/>
<path d="M149.803 150.04C149.59 150.058 149.378 150 149.204 149.877C149.152 149.827 149.113 149.765 149.092 149.696C149.071 149.627 149.067 149.554 149.083 149.483C149.086 149.438 149.101 149.395 149.127 149.358C149.153 149.321 149.188 149.292 149.229 149.274C149.594 149.11 150.548 149.722 150.657 149.793C150.67 149.801 150.679 149.812 150.685 149.826C150.69 149.839 150.691 149.854 150.687 149.868C150.685 149.883 150.679 149.896 150.669 149.907C150.659 149.917 150.646 149.924 150.632 149.927C150.361 149.996 150.083 150.034 149.803 150.04ZM149.384 149.391C149.354 149.386 149.323 149.386 149.292 149.391C149.274 149.4 149.258 149.413 149.247 149.43C149.236 149.447 149.23 149.467 149.229 149.487C149.218 149.534 149.219 149.583 149.233 149.629C149.246 149.675 149.271 149.717 149.305 149.751C149.464 149.893 149.874 149.914 150.423 149.805C150.109 149.598 149.755 149.457 149.384 149.391Z" fill="#937DEC"/>
<path d="M150.641 149.922H150.604C150.306 149.751 149.733 149.085 149.804 148.721C149.817 148.663 149.849 148.612 149.895 148.574C149.94 148.536 149.996 148.514 150.055 148.511C150.112 148.503 150.169 148.508 150.224 148.525C150.278 148.543 150.328 148.572 150.369 148.612C150.713 148.913 150.717 149.818 150.717 149.868C150.716 149.881 150.712 149.893 150.706 149.904C150.699 149.915 150.69 149.924 150.679 149.931L150.641 149.922ZM150.105 148.666H150.072C149.98 148.666 149.959 148.716 149.95 148.754C149.909 148.968 150.265 149.478 150.562 149.717C150.569 149.366 150.468 149.021 150.273 148.729C150.248 148.706 150.218 148.688 150.186 148.677C150.153 148.666 150.119 148.662 150.084 148.666H150.105Z" fill="#937DEC"/>
<path d="M135.533 150.04C135.266 150.065 134.998 149.997 134.776 149.847C134.725 149.803 134.687 149.747 134.663 149.684C134.639 149.621 134.63 149.554 134.637 149.487C134.64 149.446 134.653 149.407 134.675 149.373C134.697 149.338 134.727 149.31 134.763 149.29C135.152 149.073 136.4 149.709 136.543 149.789C136.556 149.797 136.566 149.809 136.573 149.823C136.579 149.837 136.582 149.853 136.58 149.868C136.578 149.883 136.571 149.896 136.56 149.907C136.55 149.917 136.536 149.924 136.522 149.927C136.197 149.996 135.866 150.034 135.533 150.04ZM134.977 149.391C134.929 149.388 134.881 149.398 134.838 149.42C134.823 149.427 134.811 149.438 134.802 149.453C134.793 149.467 134.788 149.483 134.788 149.5C134.782 149.543 134.786 149.588 134.801 149.629C134.815 149.671 134.84 149.708 134.872 149.738C135.064 149.91 135.58 149.939 136.275 149.822C135.869 149.606 135.43 149.46 134.977 149.391Z" fill="#937DEC"/>
<path d="M136.509 149.923H136.475C136.103 149.755 135.362 149.085 135.42 148.721C135.42 148.637 135.496 148.532 135.701 148.511C135.776 148.503 135.852 148.511 135.924 148.533C135.996 148.555 136.062 148.592 136.12 148.641C136.513 148.968 136.589 149.814 136.589 149.851C136.59 149.864 136.588 149.877 136.583 149.889C136.578 149.901 136.57 149.911 136.559 149.918C136.543 149.925 136.526 149.927 136.509 149.923ZM135.759 148.666H135.713C135.579 148.666 135.571 148.733 135.567 148.75C135.533 148.964 136.036 149.495 136.404 149.726C136.368 149.368 136.222 149.03 135.986 148.759C135.922 148.704 135.843 148.672 135.759 148.666Z" fill="#937DEC"/>
<path d="M141.458 52.9038C141.337 54.7964 141.01 58.6403 142.463 59.7039C142.463 59.7039 142.199 61.6426 138.77 62.0948C135.001 62.5847 136.722 60.4576 136.722 60.4576C138.72 59.6955 138.464 58.1756 137.92 56.7854L141.458 52.9038Z" fill="#E4897B"/>
<path d="M133.657 49.5583C133.637 49.5584 133.616 49.5539 133.597 49.5452C133.578 49.5365 133.562 49.5239 133.548 49.5081C133.429 49.366 133.277 49.2541 133.106 49.1814C132.935 49.1087 132.75 49.0771 132.564 49.0893C132.545 49.0929 132.525 49.0925 132.505 49.088C132.486 49.0836 132.468 49.0752 132.452 49.0634C132.435 49.0517 132.422 49.0368 132.412 49.0196C132.402 49.0025 132.395 48.9835 132.393 48.9637C132.388 48.9243 132.399 48.8847 132.423 48.8533C132.447 48.822 132.483 48.8015 132.522 48.7962C132.759 48.7763 132.997 48.8138 133.215 48.9057C133.434 48.9976 133.627 49.141 133.779 49.3238C133.797 49.3457 133.808 49.3722 133.812 49.4003C133.816 49.4285 133.812 49.4571 133.8 49.4829C133.788 49.5087 133.769 49.5307 133.745 49.5462C133.722 49.5618 133.694 49.5703 133.666 49.5709L133.657 49.5583Z" fill="#3C4858"/>
<path d="M133.004 51.4131C132.855 52.0137 132.626 52.5912 132.321 53.1299C132.461 53.2051 132.616 53.2486 132.774 53.2573C132.933 53.266 133.091 53.2396 133.238 53.1801L133.004 51.4131Z" fill="#DE5753"/>
<path d="M133.172 50.9529C133.205 51.2042 133.1 51.4219 132.937 51.447C132.774 51.4721 132.611 51.2795 132.581 51.0283C132.552 50.7771 132.652 50.5593 132.816 50.5384C132.979 50.5174 133.142 50.6849 133.172 50.9529Z" fill="#3C4858"/>
<path d="M132.891 50.5426L132.268 50.4463C132.268 50.4463 132.636 50.8776 132.891 50.5426Z" fill="#3C4858"/>
<path d="M139.959 149.855H136.819L136.609 142.59H139.75L139.959 149.855Z" fill="#E4897B"/>
<path d="M154.217 149.855H151.077L150.067 142.59H153.208L154.217 149.855Z" fill="#E4897B"/>
<path d="M150.884 149.504H154.409C154.47 149.503 154.528 149.525 154.573 149.564C154.619 149.603 154.648 149.658 154.656 149.717L155.075 152.51C155.083 152.581 155.076 152.652 155.054 152.719C155.032 152.787 154.996 152.849 154.949 152.901C154.901 152.954 154.843 152.996 154.778 153.025C154.714 153.053 154.644 153.068 154.573 153.067C153.346 153.046 152.751 152.975 151.202 152.975C150.247 152.975 148.853 153.071 147.538 153.071C146.223 153.071 146.152 151.769 146.701 151.652C149.159 151.124 149.548 150.396 150.373 149.697C150.517 149.577 150.697 149.509 150.884 149.504Z" fill="#3C4858"/>
<path d="M136.714 149.504H140.235C140.296 149.503 140.355 149.524 140.401 149.564C140.447 149.603 140.477 149.658 140.487 149.717L140.905 152.51C140.913 152.581 140.906 152.652 140.884 152.719C140.862 152.787 140.826 152.849 140.779 152.901C140.731 152.954 140.673 152.996 140.609 153.025C140.544 153.053 140.474 153.068 140.403 153.067C139.176 153.046 138.581 152.975 137.032 152.975C136.077 152.975 134.101 153.071 132.786 153.071C131.471 153.071 131.4 151.769 131.949 151.652C134.407 151.124 135.374 150.396 136.203 149.697C136.347 149.577 136.527 149.509 136.714 149.504Z" fill="#3C4858"/>
<path d="M136.609 142.59L136.718 146.338H139.859L139.75 142.59H136.609Z" fill="#CE6F64"/>
<path d="M153.208 142.59H150.067L150.591 146.338H153.727L153.208 142.59Z" fill="#CE6F64"/>
<path d="M141.5 48.9845C141.714 52.0915 141.869 53.4021 140.52 55.19C138.49 57.8741 134.629 57.4595 133.49 54.4782C132.464 51.7942 132.288 47.1673 135.144 45.5426C135.772 45.1826 136.482 44.989 137.206 44.9803C137.93 44.9716 138.644 45.148 139.281 45.4927C139.918 45.8375 140.456 46.3393 140.844 46.9504C141.233 47.5615 141.458 48.2617 141.5 48.9845Z" fill="#E4897B"/>
<path d="M143.309 51.8697C145.051 52.8411 146.345 50.446 146.345 50.446C146.345 50.446 143.221 50.7852 143.501 48.926C143.87 46.4598 142.103 43.4617 137.673 43.8469C137.426 43.8678 137.191 43.8972 136.961 43.9348C136.497 43.715 135.973 43.6583 135.473 43.7738C134.973 43.8893 134.526 44.1703 134.206 44.5713C132.95 44.676 131.254 46.175 132.405 48.1556C132.486 47.928 132.611 47.7188 132.774 47.5401C132.87 48.6999 133.883 50.5423 135.148 50.6637C135.42 52.2507 134.365 54.0889 134.729 55.7471C135.269 58.138 139.302 58.6781 139.302 58.6781C139.163 58.3796 139.111 58.0477 139.152 57.721C139.194 57.3942 139.327 57.0859 139.536 56.8316C142.275 58.0877 144.079 56.8609 144.079 56.8609C142.212 56.1658 142.777 54.9264 142.777 54.9264C143.422 55.2127 144.153 55.2378 144.815 54.9965C145.478 54.7552 146.022 54.2663 146.332 53.6325C145.712 53.662 145.096 53.5112 144.56 53.1983C144.023 52.8855 143.589 52.424 143.309 51.8697Z" fill="#3C4858"/>
<path d="M136.241 51.1416C136.249 51.4398 136.197 51.7364 136.089 52.0146C135.981 52.2927 135.82 52.5467 135.613 52.762C135.061 53.3357 134.382 52.9337 134.198 52.2009C134.035 51.5394 134.127 50.4465 134.847 50.145C135.006 50.0827 135.177 50.061 135.346 50.0819C135.515 50.1028 135.676 50.1657 135.815 50.2647C135.953 50.3637 136.065 50.4958 136.139 50.649C136.214 50.8021 136.249 50.9714 136.241 51.1416Z" fill="#E4897B"/>
<path d="M138.85 80.088C138.85 80.088 139.645 100.756 141.538 112.891C143.062 122.697 149.833 145.61 149.833 145.61H154.112C154.112 145.61 150.582 123.48 149.808 113.787C147.848 89.2539 152.936 83.9864 148.133 78.8779L138.85 80.088Z" fill="#3C4858"/>
<path d="M142.425 86.6241C142.425 86.6241 140.491 86.2892 139.36 89.9739C139.779 96.9541 140.495 106.216 141.538 112.891C141.768 114.377 142.12 116.169 142.551 118.133C141.735 106.342 142.425 86.6241 142.425 86.6241Z" fill="#161F33"/>
<path d="M135.513 80.523C135.513 80.523 131.987 103.39 132.192 112.957C132.406 122.911 136.053 145.618 136.053 145.618H140.295C140.295 145.618 139.625 123.501 139.997 113.728C140.416 103.071 144.767 79.3213 144.767 79.3213L135.513 80.523Z" fill="#3C4858"/>
<path d="M154.732 145.811H149.042L148.598 143.901L154.69 143.943L154.732 145.811Z" fill="#937DEC"/>
<path opacity="0.2" d="M154.732 145.811H149.042L148.598 143.901L154.69 143.943L154.732 145.811Z" fill="black"/>
<path d="M147.919 59.7081C149.556 59.8673 152.043 64.5193 152.043 64.5193L147.911 67.689C147.911 67.689 144.49 64.6868 144.896 62.9993C145.319 61.2449 146.349 59.5616 147.919 59.7081Z" fill="#937DEC"/>
<path opacity="0.1" d="M147.919 59.7081C149.556 59.8673 152.043 64.5193 152.043 64.5193L147.911 67.689C147.911 67.689 144.49 64.6868 144.896 62.9993C145.319 61.2449 146.349 59.5616 147.919 59.7081Z" fill="black"/>
<path d="M146.684 61.7101C146.266 61.5976 145.834 61.5496 145.402 61.5677C145.183 62.0255 145.013 62.5056 144.896 62.9997C144.477 64.6746 147.911 67.6894 147.911 67.6894L148.216 67.455L146.684 61.7101Z" fill="#937DEC"/>
<path opacity="0.3" d="M146.684 61.7101C146.266 61.5976 145.834 61.5496 145.402 61.5677C145.183 62.0255 145.013 62.5056 144.896 62.9997C144.477 64.6746 147.911 67.6894 147.911 67.6894L148.216 67.455L146.684 61.7101Z" fill="black"/>
<path d="M134.11 66.1776C132.916 69.1966 131.66 72.2658 130.659 75.2932C130.592 75.4858 130.538 75.67 130.479 75.8585L130.337 76.3233C130.298 76.4601 130.298 76.6051 130.337 76.742C130.573 77.2655 130.948 77.7144 131.421 78.04C132.673 78.9383 134.037 79.6689 135.479 80.2132L135.102 81.7541C133.329 81.5203 131.614 80.961 130.044 80.1043C129.078 79.5881 128.291 78.791 127.787 77.8181C127.498 77.1963 127.397 76.5033 127.498 75.825C127.508 75.7419 127.522 75.6595 127.54 75.5779L127.582 75.4021L127.653 75.0838C127.703 74.8703 127.753 74.6651 127.808 74.4557C128.227 72.7808 128.763 71.1897 129.328 69.6111C129.893 68.0325 130.484 66.4749 131.149 64.9214L134.11 66.1776Z" fill="#E4897B"/>
<path d="M131.568 61.94C131.568 61.94 130.153 62.656 135.513 80.523L148.15 78.8732C147.262 73.7564 146.844 70.5866 147.92 59.7082C146.107 59.5784 144.288 59.5784 142.476 59.7082C140.547 59.8204 138.628 60.0723 136.736 60.4619C134.311 61.002 131.568 61.94 131.568 61.94Z" fill="#937DEC"/>
<path opacity="0.1" d="M131.568 61.94C131.568 61.94 130.153 62.656 135.513 80.523L148.15 78.8732C147.262 73.7564 146.844 70.5866 147.92 59.7082C146.107 59.5784 144.288 59.5784 142.476 59.7082C140.547 59.8204 138.628 60.0723 136.736 60.4619C134.311 61.002 131.568 61.94 131.568 61.94Z" fill="black"/>
<path d="M148.241 78.1071L148.966 79.1581C149.02 79.2418 148.928 79.3423 148.786 79.3632L135.533 81.0968C135.42 81.0968 135.315 81.0675 135.299 80.9963L135.039 79.8783C135.018 79.8029 135.11 79.7233 135.236 79.7066L148.032 78.0317C148.071 78.0256 148.11 78.0292 148.147 78.0424C148.183 78.0556 148.216 78.0778 148.241 78.1071Z" fill="#937DEC"/>
<path opacity="0.2" d="M148.241 78.1071L148.966 79.1581C149.02 79.2418 148.928 79.3423 148.786 79.3632L135.533 81.0968C135.42 81.0968 135.315 81.0675 135.299 80.9963L135.039 79.8783C135.018 79.8029 135.11 79.7233 135.236 79.7066L148.032 78.0317C148.071 78.0256 148.11 78.0292 148.147 78.0424C148.183 78.0556 148.216 78.0778 148.241 78.1071Z" fill="black"/>
<path d="M146.709 79.7612L147.052 79.7152C147.119 79.7152 147.165 79.6649 147.157 79.623L146.805 78.1743C146.792 78.1495 146.771 78.1302 146.745 78.1195C146.719 78.1088 146.69 78.1074 146.663 78.1156L146.32 78.1575C146.248 78.1575 146.202 78.2078 146.215 78.2538L146.567 79.6984C146.575 79.7445 146.642 79.7696 146.709 79.7612Z" fill="#3C4858"/>
<path d="M138.401 80.8328L138.745 80.7867C138.812 80.7867 138.862 80.7365 138.849 80.6946L138.498 79.2458C138.484 79.2214 138.463 79.2021 138.437 79.1907C138.411 79.1794 138.383 79.1767 138.355 79.183L138.012 79.2291C137.945 79.2291 137.895 79.2793 137.907 79.3212L138.259 80.77C138.267 80.8328 138.334 80.8579 138.401 80.8328Z" fill="#3C4858"/>
<path d="M132.158 68.003C132.506 69.6193 132.996 71.6668 133.712 74.2588L133.867 67.689L132.158 68.003Z" fill="#937DEC"/>
<path opacity="0.3" d="M132.158 68.003C132.506 69.6193 132.996 71.6668 133.712 74.2588L133.867 67.689L132.158 68.003Z" fill="black"/>
<path d="M131.568 61.9402C129.998 62.5724 128.637 67.9447 128.637 67.9447L134.038 70.5743C134.038 70.5743 136.647 64.0045 135.479 62.7232C134.31 61.4419 133.377 61.2158 131.568 61.9402Z" fill="#937DEC"/>
<path opacity="0.1" d="M131.568 61.9402C129.998 62.5724 128.637 67.9447 128.637 67.9447L134.038 70.5743C134.038 70.5743 136.647 64.0045 135.479 62.7232C134.31 61.4419 133.377 61.2158 131.568 61.9402Z" fill="black"/>
<path d="M141.018 145.811H135.328L134.884 143.901L141.219 143.943L141.018 145.811Z" fill="#937DEC"/>
<path opacity="0.2" d="M141.018 145.811H135.328L134.884 143.901L141.219 143.943L141.018 145.811Z" fill="black"/>
<path d="M135.567 79.6941L135.11 79.5057C134.998 79.46 134.876 79.4449 134.756 79.4618C134.636 79.4787 134.523 79.527 134.427 79.6018C134.332 79.6767 134.258 79.7753 134.214 79.8879C134.169 80.0004 134.155 80.1228 134.172 80.2426L134.503 82.4242C134.519 82.5334 134.559 82.6377 134.62 82.7295C134.681 82.8214 134.762 82.8986 134.857 82.9555C134.951 83.0124 135.057 83.0475 135.167 83.0585C135.277 83.0694 135.388 83.0559 135.491 83.0188C135.658 82.9584 135.813 82.8722 135.952 82.7633C136.103 82.6378 136.223 82.4784 136.302 82.298C136.38 82.1176 136.415 81.9213 136.404 81.7249L136.358 80.8205C136.35 80.5761 136.271 80.3393 136.131 80.1392C135.99 79.9391 135.794 79.7844 135.567 79.6941Z" fill="#E4897B"/>
<path d="M54.9031 59.1686C54.5346 60.006 54.1284 60.9105 53.7725 61.794C53.4166 62.6775 53.0481 63.5861 52.7257 64.4906C52.0642 66.2538 51.5337 68.0634 51.1388 69.9047L51.0173 70.5746L50.9755 70.8259C50.9755 70.8971 50.9754 70.9892 50.9503 71.0729C50.9344 71.4806 50.9428 71.8889 50.9755 72.2956C51.055 73.1791 51.1974 74.1254 51.3942 75.0718C51.7459 76.9686 52.1939 78.924 52.6503 80.8501L50.5023 81.6876C49.501 79.8623 48.6482 77.9593 47.9523 75.9971C47.5856 74.9759 47.289 73.9308 47.0646 72.8693C46.9388 72.2819 46.8604 71.6854 46.8301 71.0855C46.8301 70.918 46.8301 70.7589 46.8301 70.5788C46.8301 70.3988 46.8301 70.1978 46.8594 70.0806L46.9431 69.2431C47.0682 68.1646 47.2598 67.0948 47.5168 66.0399C47.7513 64.9931 48.0528 63.9756 48.3542 62.9706C48.6557 61.9657 49.0326 60.9775 49.4304 60.006C49.6272 59.5203 49.8491 59.0388 50.0417 58.5573C50.2343 58.0757 50.4604 57.6151 50.7284 57.1001L54.9031 59.1686Z" fill="#E4897B"/>
<path d="M52.5375 80.2852L54.1705 81.8805L50.6072 83.5554C50.6072 83.5554 49.7446 82.0438 50.3434 80.6788L52.5375 80.2852Z" fill="#E4897B"/>
<path d="M55.4895 84.2545L52.4788 85.4856L50.6113 83.5385L54.1705 81.8804L55.4895 84.2545Z" fill="#E4897B"/>
<path opacity="0.4" d="M116.477 82.5378C110.552 81.8726 104.958 79.4658 100.401 75.6216C95.844 71.7774 92.5292 66.6684 90.8755 60.9406C89.2217 55.2128 89.3034 49.1232 91.11 43.4418C92.9167 37.7603 96.3673 32.7421 101.026 29.0214C105.684 25.3007 111.341 23.0447 117.281 22.5386C123.221 22.0324 129.178 23.2988 134.399 26.1777C139.619 29.0566 143.869 33.4187 146.611 38.7126C149.353 44.0065 150.464 49.9944 149.803 55.9195C149.364 59.8561 148.153 63.6676 146.241 67.1361C144.328 70.6047 141.751 73.6624 138.656 76.1344C135.561 78.6064 132.009 80.4442 128.203 81.543C124.398 82.6417 120.413 82.9798 116.477 82.5378Z" fill="#FAFAFA"/>
<path opacity="0.4" d="M138.41 28.8234L92.5597 65.4576C92.3671 65.0388 92.1787 64.6201 92.0028 64.2014C90.8534 61.4673 90.1181 58.577 89.8213 55.6259L129.424 23.9829C132.676 25.0675 135.716 26.705 138.41 28.8234Z" fill="#FAFAFA"/>
<path opacity="0.4" d="M148.991 44.8737L105.884 79.3138C101.788 77.1789 98.2394 74.1301 95.5117 70.4033L142.581 32.7935C145.615 36.276 147.808 40.409 148.991 44.8737Z" fill="#FAFAFA"/>
<path d="M85.9017 41.0547L85.5039 40.9207C86.1928 38.8878 87.0587 36.9193 88.0916 35.0376L88.4559 35.2386C87.4366 37.0992 86.582 39.0453 85.9017 41.0547ZM90.985 31.2817L90.6458 31.0346C94.087 26.3817 98.5906 22.6189 103.781 20.0599L103.97 20.4367C98.838 22.9693 94.386 26.6919 90.985 31.2942V31.2817ZM136.873 21.0104C135.505 20.2765 134.089 19.6344 132.636 19.0884L132.786 18.6948C134.254 19.2536 135.684 19.9082 137.066 20.6545L136.873 21.0104Z" fill="#937DEC"/>
<path opacity="0.3" d="M85.9017 41.0547L85.5039 40.9207C86.1928 38.8878 87.0587 36.9193 88.0916 35.0376L88.4559 35.2386C87.4366 37.0992 86.582 39.0453 85.9017 41.0547ZM90.985 31.2817L90.6458 31.0346C94.087 26.3817 98.5906 22.6189 103.781 20.0599L103.97 20.4367C98.838 22.9693 94.386 26.6919 90.985 31.2942V31.2817ZM136.873 21.0104C135.505 20.2765 134.089 19.6344 132.636 19.0884L132.786 18.6948C134.254 19.2536 135.684 19.9082 137.066 20.6545L136.873 21.0104Z" fill="black"/>
<path d="M151.005 37.1772C147.128 29.1357 140.305 22.8946 131.951 19.7478C123.596 16.601 114.351 16.7897 106.132 20.2749C97.9132 23.7601 91.3506 30.2744 87.8048 38.4675C84.2589 46.6605 84.0019 55.9038 87.0869 64.2812C84.2899 65.261 81.5263 66.312 78.7794 67.3965C74.8183 68.9681 70.8935 70.6095 67.0049 72.3207C63.1191 74.0417 59.2501 75.7961 55.4188 77.6301C53.4969 78.5304 51.6 79.4809 49.6865 80.4021C48.691 80.8299 47.7891 81.4487 47.0317 82.2235C46.6219 82.6527 46.261 83.1259 45.9556 83.6347C45.583 84.2364 45.3008 84.8896 45.1182 85.5733C44.8031 86.8055 44.9394 88.1098 45.5023 89.2503C46.0652 90.3907 47.0177 91.2921 48.1874 91.7914C48.837 92.0638 49.5223 92.2415 50.2224 92.319C50.8137 92.386 51.4107 92.386 52.002 92.319C53.0766 92.1886 54.1151 91.8486 55.0587 91.3182C56.9555 90.3594 58.8649 89.434 60.7492 88.45C64.5177 86.528 68.2862 84.5223 72.0087 82.4873C75.7311 80.4523 79.4578 78.321 83.0923 76.1353C85.6047 74.6153 88.1421 73.0619 90.6293 71.4372C95.4054 78.977 102.899 84.3904 111.558 86.5555C120.216 88.7207 129.376 87.4716 137.139 83.0673C144.902 78.6629 150.673 71.4408 153.256 62.8975C155.839 54.3542 155.036 45.1447 151.014 37.1772H151.005ZM131.97 77.1779C127.104 79.5798 121.635 80.4849 116.254 79.7787C110.874 79.0725 105.824 76.7868 101.742 73.2105C97.6605 69.6341 94.7311 64.9279 93.3242 59.6868C91.9173 54.4457 92.0961 48.9051 93.838 43.7656C95.5798 38.6261 98.8065 34.1185 103.11 30.8128C107.414 27.507 112.601 25.5516 118.016 25.1937C123.43 24.8359 128.83 26.0917 133.531 28.8023C138.232 31.5129 142.024 35.5567 144.427 40.4223C146.023 43.6535 146.967 47.1676 147.204 50.7636C147.442 54.3596 146.969 57.9673 145.812 61.3805C144.655 64.7937 142.838 67.9455 140.462 70.6561C138.087 73.3666 135.202 75.5828 131.97 77.1779Z" fill="#937DEC"/>
<path opacity="0.3" d="M151.005 37.1772C147.128 29.1357 140.305 22.8946 131.951 19.7478C123.596 16.601 114.351 16.7897 106.132 20.2749C97.9132 23.7601 91.3506 30.2744 87.8048 38.4675C84.2589 46.6605 84.0019 55.9038 87.0869 64.2812C84.2899 65.261 81.5263 66.312 78.7794 67.3965C74.8183 68.9681 70.8935 70.6095 67.0049 72.3207C63.1191 74.0417 59.2501 75.7961 55.4188 77.6301C53.4969 78.5304 51.6 79.4809 49.6865 80.4021C48.691 80.8299 47.7891 81.4487 47.0317 82.2235C46.6219 82.6527 46.261 83.1259 45.9556 83.6347C45.583 84.2364 45.3008 84.8896 45.1182 85.5733C44.8031 86.8055 44.9394 88.1098 45.5023 89.2503C46.0652 90.3907 47.0177 91.2921 48.1874 91.7914C48.837 92.0638 49.5223 92.2415 50.2224 92.319C50.8137 92.386 51.4107 92.386 52.002 92.319C53.0766 92.1886 54.1151 91.8486 55.0587 91.3182C56.9555 90.3594 58.8649 89.434 60.7492 88.45C64.5177 86.528 68.2862 84.5223 72.0087 82.4873C75.7311 80.4523 79.4578 78.321 83.0923 76.1353C85.6047 74.6153 88.1421 73.0619 90.6293 71.4372C95.4054 78.977 102.899 84.3904 111.558 86.5555C120.216 88.7207 129.376 87.4716 137.139 83.0673C144.902 78.6629 150.673 71.4408 153.256 62.8975C155.839 54.3542 155.036 45.1447 151.014 37.1772H151.005ZM131.97 77.1779C127.104 79.5798 121.635 80.4849 116.254 79.7787C110.874 79.0725 105.824 76.7868 101.742 73.2105C97.6605 69.6341 94.7311 64.9279 93.3242 59.6868C91.9173 54.4457 92.0961 48.9051 93.838 43.7656C95.5798 38.6261 98.8065 34.1185 103.11 30.8128C107.414 27.507 112.601 25.5516 118.016 25.1937C123.43 24.8359 128.83 26.0917 133.531 28.8023C138.232 31.5129 142.024 35.5567 144.427 40.4223C146.023 43.6535 146.967 47.1676 147.204 50.7636C147.442 54.3596 146.969 57.9673 145.812 61.3805C144.655 64.7937 142.838 67.9455 140.462 70.6561C138.087 73.3666 135.202 75.5828 131.97 77.1779Z" fill="black"/>
<path d="M66.4775 44.2161C66.4775 44.4632 66.6073 44.6641 66.7706 44.6641C66.9339 44.6641 67.0638 44.4632 67.0638 44.2161C67.0638 43.9691 66.9339 43.7681 66.7706 43.7681C66.6073 43.7681 66.4775 43.9858 66.4775 44.2161Z" fill="#3C4858"/>
<path d="M66.5947 44.6641C66.8911 45.4224 67.2898 46.1367 67.7797 46.787C67.6103 46.9082 67.4165 46.9908 67.2118 47.0292C67.0071 47.0675 66.7965 47.0606 66.5947 47.0089V44.6641Z" fill="#DE5753"/>
<path d="M65.6106 42.8384C65.5872 42.8384 65.5642 42.8331 65.5431 42.823C65.5221 42.8128 65.5037 42.798 65.4891 42.7798C65.4673 42.7478 65.4586 42.7087 65.4649 42.6705C65.4711 42.6323 65.4918 42.5979 65.5226 42.5746C65.707 42.4347 65.9225 42.3415 66.1507 42.3029C66.3789 42.2642 66.6131 42.2813 66.8332 42.3527C66.853 42.358 66.8714 42.3675 66.8873 42.3805C66.9032 42.3934 66.9162 42.4096 66.9255 42.4278C66.9347 42.4461 66.94 42.4661 66.9411 42.4866C66.9421 42.5071 66.9389 42.5275 66.9315 42.5467C66.9242 42.5658 66.9129 42.5832 66.8984 42.5977C66.8839 42.6122 66.8665 42.6235 66.8474 42.6308C66.8283 42.6382 66.8078 42.6415 66.7873 42.6404C66.7669 42.6394 66.7469 42.6341 66.7286 42.6248C66.5537 42.5712 66.3685 42.5603 66.1885 42.5931C66.0085 42.6259 65.8391 42.7014 65.6943 42.8133C65.6695 42.8297 65.6404 42.8385 65.6106 42.8384Z" fill="#3C4858"/>
<path d="M58.0193 46.0791C58.438 48.3277 58.8986 52.4521 57.3242 53.9553C57.3242 53.9553 57.9397 56.2374 62.1228 56.2374C66.7288 56.2374 64.3169 53.9553 64.3169 53.9553C61.8046 53.3523 61.8758 51.4932 62.3112 49.7429L58.0193 46.0791Z" fill="#E4897B"/>
<path d="M55.4437 55.1404C55.9419 54.3657 55.1045 52.4857 55.1045 52.4857C55.1045 52.4857 62.5075 50.6223 65.5349 53.4822C66.163 54.0726 65.4679 54.9436 65.4679 54.9436L55.4437 55.1404Z" fill="#937DEC"/>
<path opacity="0.1" d="M55.4437 55.1404C55.9419 54.3657 55.1045 52.4857 55.1045 52.4857C55.1045 52.4857 62.5075 50.6223 65.5349 53.4822C66.163 54.0726 65.4679 54.9436 65.4679 54.9436L55.4437 55.1404Z" fill="black"/>
<path d="M43.196 140.573C42.8066 140.573 42.1827 139.924 41.9985 139.681C41.9906 139.669 41.9863 139.655 41.9863 139.641C41.9863 139.627 41.9906 139.613 41.9985 139.601C42.0052 139.589 42.015 139.58 42.0268 139.573C42.0386 139.567 42.052 139.563 42.0655 139.563C42.1115 139.563 43.1374 139.656 43.418 140.02C43.4485 140.058 43.4702 140.103 43.4818 140.151C43.4934 140.198 43.4945 140.248 43.485 140.296C43.4813 140.359 43.4584 140.418 43.4194 140.467C43.3804 140.516 43.3272 140.551 43.2672 140.568L43.196 140.573ZM42.2246 139.735C42.5303 140.087 43.0202 140.485 43.2295 140.434C43.2295 140.434 43.3133 140.414 43.3384 140.28C43.3439 140.252 43.343 140.223 43.3357 140.195C43.3285 140.168 43.3151 140.142 43.2965 140.12C42.9863 139.885 42.6131 139.748 42.2246 139.727V139.735Z" fill="#937DEC"/>
<path d="M42.2703 139.727C42.1951 139.735 42.1193 139.735 42.0441 139.727C42.0309 139.726 42.0183 139.721 42.0078 139.713C41.9974 139.705 41.9896 139.694 41.9855 139.681C41.9796 139.67 41.9766 139.657 41.9766 139.644C41.9766 139.63 41.9796 139.618 41.9855 139.606C42.0148 139.581 42.6304 138.94 43.0951 138.94C43.1508 138.939 43.206 138.949 43.2573 138.971C43.3085 138.993 43.3546 139.025 43.3924 139.066C43.4341 139.101 43.4627 139.149 43.4733 139.202C43.484 139.255 43.4761 139.311 43.4511 139.359C43.3296 139.593 42.689 139.727 42.2703 139.727ZM42.2158 139.581C42.6345 139.581 43.2417 139.451 43.3422 139.267C43.3422 139.267 43.3715 139.212 43.3045 139.145C43.2801 139.119 43.2503 139.098 43.217 139.084C43.1837 139.07 43.1479 139.064 43.1119 139.066C42.7686 139.144 42.4567 139.324 42.2158 139.581Z" fill="#937DEC"/>
<path d="M70.8279 150.078C70.5105 150.076 70.1939 150.046 69.8816 149.99C69.8661 149.987 69.8521 149.979 69.8421 149.967C69.8322 149.954 69.8269 149.939 69.8271 149.923C69.8248 149.909 69.8267 149.894 69.8327 149.88C69.8386 149.867 69.8483 149.856 69.8606 149.848C69.9067 149.823 70.9786 149.207 71.4937 149.349C71.5414 149.36 71.5865 149.381 71.6261 149.409C71.6657 149.438 71.699 149.475 71.724 149.517C71.7568 149.564 71.7744 149.619 71.7744 149.676C71.7744 149.733 71.7568 149.789 71.724 149.835C71.6025 150.024 71.2215 150.078 70.8279 150.078ZM70.1202 149.881C70.6897 149.965 71.4685 149.961 71.6109 149.76C71.6318 149.735 71.6486 149.689 71.6109 149.601C71.5789 149.549 71.5278 149.511 71.4685 149.496C71.1419 149.412 70.4929 149.689 70.1202 149.881Z" fill="#937DEC"/>
<path d="M69.898 149.994C69.8843 149.998 69.8698 149.998 69.8561 149.994C69.8445 149.987 69.8355 149.976 69.8302 149.963C69.825 149.95 69.8238 149.936 69.8268 149.923C69.8552 149.487 70.0225 149.072 70.3042 148.738C70.3611 148.689 70.428 148.653 70.5003 148.632C70.5726 148.611 70.6485 148.605 70.7229 148.617C70.9239 148.617 70.9825 148.738 70.9951 148.817C71.0495 149.165 70.3167 149.831 69.9441 149.998L69.898 149.994ZM70.6475 148.738C70.5554 148.737 70.4662 148.77 70.3963 148.83C70.1595 149.095 70.0129 149.427 69.9776 149.781C70.3544 149.55 70.8569 149.031 70.815 148.822C70.815 148.822 70.815 148.751 70.6727 148.738H70.6475Z" fill="#937DEC"/>
<path d="M66.5146 149.919H69.5923L69.8979 142.796H66.8203L66.5146 149.919Z" fill="#E4897B"/>
<path d="M39.1094 137.692L41.6803 139.375L47.3582 134.581L44.7831 132.894L39.1094 137.692Z" fill="#E4897B"/>
<path d="M42.1032 139.216L39.4317 137.026C39.3845 136.988 39.3253 136.966 39.2642 136.966C39.2031 136.966 39.1439 136.988 39.0967 137.026L36.8942 138.756C36.841 138.798 36.798 138.852 36.7685 138.913C36.739 138.974 36.7236 139.041 36.7236 139.109C36.7236 139.177 36.739 139.245 36.7685 139.306C36.798 139.367 36.841 139.421 36.8942 139.463C37.8405 140.213 38.3388 140.531 39.5154 141.494C40.2398 142.084 42.0278 143.893 43.0369 144.71C44.046 145.526 44.9714 144.647 44.6364 144.224C43.1332 142.319 42.5428 140.69 42.3711 139.681C42.3415 139.499 42.2462 139.333 42.1032 139.216Z" fill="#3C4858"/>
<path d="M69.571 149.563H66.2212C66.1602 149.563 66.1009 149.584 66.0531 149.622C66.0052 149.66 65.9715 149.713 65.9574 149.772L65.3503 152.507C65.335 152.573 65.3351 152.642 65.3504 152.708C65.3657 152.774 65.3958 152.836 65.4386 152.889C65.4814 152.942 65.5356 152.984 65.5972 153.013C65.6588 153.042 65.7262 153.056 65.7941 153.055C67.0043 153.034 68.7545 152.963 70.2787 152.963C72.0583 152.963 73.5992 153.059 75.6844 153.059C76.9406 153.059 77.3007 151.782 76.7689 151.669C74.3654 151.142 72.3974 151.087 70.3206 149.802C70.0977 149.654 69.8382 149.571 69.571 149.563Z" fill="#3C4858"/>
<path d="M51.2605 54.8727C48.5932 56.1288 47.0732 64.5452 47.0732 64.5452L53.5928 67.1455C54.5471 64.8153 55.3185 62.4143 55.9 59.9644C56.796 56.087 53.9906 53.5746 51.2605 54.8727Z" fill="#3C4858"/>
<path d="M54.7193 59.6166C53.1072 61.2497 52.3703 64.4487 52.0479 66.5298L53.6097 67.1537C54.5369 64.8896 55.2927 62.5591 55.8708 60.1819C55.7326 59.2942 55.3893 58.9383 54.7193 59.6166Z" fill="#203048"/>
<path d="M69.0479 54.8141C69.0479 54.8141 72.3223 58.5156 69.2321 81.4031H52.7805C52.6674 78.8907 54.2544 66.5593 51.8174 54.6591C53.6355 54.3066 55.4749 54.0744 57.3236 53.9641C59.6525 53.8258 61.9875 53.8258 64.3163 53.9641C65.9131 54.1248 67.495 54.4089 69.0479 54.8141Z" fill="#3C4858"/>
<path d="M70.5509 63.699L67.7789 58.9214C67.2438 61.1505 67.0253 63.4439 67.1299 65.734C67.2053 67.3754 68.7085 73.4553 70.061 74.343C70.4199 70.8067 70.5834 67.2533 70.5509 63.699Z" fill="#203048"/>
<path d="M70.9367 58.0845C71.3555 60.1195 71.7742 62.2047 72.2222 64.2481C72.6703 66.2915 73.135 68.3432 73.6752 70.3238C73.8134 70.8137 73.9432 71.3162 74.0939 71.7851L74.207 72.1452L74.2614 72.3253V72.3044C74.2321 72.2667 74.1986 72.2625 74.2237 72.3044C74.3958 72.4923 74.6158 72.6298 74.8602 72.7021C75.256 72.8494 75.6636 72.9629 76.0787 73.0413C78.0584 73.3551 80.0628 73.4854 82.0664 73.4307L82.4642 75.7086C81.9031 75.8886 81.3797 76.0184 80.827 76.1482C80.2743 76.2781 79.73 76.3869 79.173 76.4707C78.0208 76.6625 76.8526 76.741 75.6851 76.7052C75.0361 76.6877 74.3907 76.6035 73.7589 76.4539C72.9557 76.2782 72.2009 75.928 71.5481 75.428C71.1217 75.0838 70.7698 74.6564 70.5138 74.1719C70.4468 74.0463 70.3882 73.9039 70.3338 73.7825L70.2584 73.5857L70.1035 73.1669C69.8899 72.6352 69.7141 72.1117 69.5214 71.5883C68.8138 69.4947 68.2234 67.3802 67.7042 65.2698C67.185 63.1594 66.7369 61.0532 66.3643 58.8884L70.9367 58.0845Z" fill="#E4897B"/>
<path d="M64.9403 57.0582C64.0735 59.8678 67.5866 68.2465 67.5866 68.2465L74.5835 66.4879C74.5835 66.4879 74.3155 62.1331 72.7202 58.6787C70.3167 53.4697 65.9787 53.6875 64.9403 57.0582Z" fill="#3C4858"/>
<path d="M82.0074 73.4307L85.4912 73.3428L83.8163 76.9689C83.8163 76.9689 82.3968 77.1574 81.2327 75.2438L80.0059 73.7782L81.417 73.4977C81.6112 73.4568 81.8089 73.4344 82.0074 73.4307Z" fill="#E4897B"/>
<path d="M87.6896 74.0169L85.6965 77.0234L83.8164 76.9689L85.4913 73.3428L87.6896 74.0169Z" fill="#E4897B"/>
<path d="M69.8979 142.796L69.7388 146.469H66.6611L66.8203 142.796H69.8979Z" fill="#CE6F64"/>
<path d="M44.7833 132.894L47.3585 134.581L44.4274 137.051L41.8564 135.368L44.7833 132.894Z" fill="#CE6F64"/>
<path d="M58.2118 43.6845C58.396 46.7287 58.3499 48.525 59.8867 50.0868C62.198 52.4443 65.9623 51.0499 66.6909 47.9932C67.3483 45.2548 66.938 40.7325 63.9567 39.5182C63.2988 39.2527 62.5843 39.1587 61.8802 39.2449C61.1761 39.3312 60.5054 39.595 59.9311 40.0114C59.3569 40.4279 58.8978 40.9834 58.5971 41.6259C58.2963 42.2684 58.1637 42.9768 58.2118 43.6845Z" fill="#E4897B"/>
<path d="M54.6272 43.1484C55.3851 45.9246 57.1689 49.1236 59.4761 49.3288C62.3402 49.58 63.634 46.6196 64.0109 43.563C65.7276 42.3863 64.8274 41.0925 66.5483 40.9292C68.7592 40.7198 68.0516 36.6749 65.1414 36.0259C65.1414 36.0259 66.1171 37.8474 64.0695 36.9262C62.1222 36.0007 59.9589 35.6257 57.8137 35.8417C57.8137 35.8417 60.4266 37.1481 57.8724 37.7301C55.3181 38.3121 54.5561 39.8865 55.7327 40.837C55.7327 40.8412 54.129 41.3228 54.6272 43.1484Z" fill="#3C4858"/>
<path d="M62.2649 44.1909C62.3211 44.9476 62.6259 45.6645 63.1316 46.2301C63.8016 46.9712 64.5009 46.5106 64.6181 45.6104C64.727 44.8022 64.5051 43.4414 63.6844 43.031C62.8637 42.6207 62.2105 43.2781 62.2649 44.1909Z" fill="#E4897B"/>
<path d="M63.395 81.4031C63.395 81.4031 66.3931 103.114 64.0315 111.815C60.2881 125.591 45.9761 137.219 45.9761 137.219L41.123 134.037C41.123 134.037 53.3121 124.218 54.8028 112.682C56.1427 102.327 52.7803 89.8027 52.7803 81.3989L63.395 81.4031Z" fill="#937DEC"/>
<path opacity="0.1" d="M63.395 81.4031C63.395 81.4031 66.3931 103.114 64.0315 111.815C60.2881 125.591 45.9761 137.219 45.9761 137.219L41.123 134.037C41.123 134.037 53.3121 124.218 54.8028 112.682C56.1427 102.327 52.7803 89.8027 52.7803 81.3989L63.395 81.4031Z" fill="black"/>
<path d="M64.6352 93.8136C63.837 92.8992 62.9584 92.0584 62.0098 91.3013C62.5206 98.3484 62.9393 108.787 62.4746 116.203C63.0995 114.781 63.6201 113.316 64.0322 111.819C65.1837 107.569 65.0623 100.228 64.6352 93.8136Z" fill="#937DEC"/>
<path opacity="0.3" d="M64.6352 93.8136C63.837 92.8992 62.9584 92.0584 62.0098 91.3013C62.5206 98.3484 62.9393 108.787 62.4746 116.203C63.0995 114.781 63.6201 113.316 64.0322 111.819C65.1837 107.569 65.0623 100.228 64.6352 93.8136Z" fill="black"/>
<path d="M47.9321 136.135C47.953 136.135 46.052 137.391 46.052 137.391L40.751 133.915L42.4259 132.529L47.9321 136.135Z" fill="#937DEC"/>
<path opacity="0.3" d="M47.9321 136.135C47.953 136.135 46.052 137.391 46.052 137.391L40.751 133.915L42.4259 132.529L47.9321 136.135Z" fill="black"/>
<path d="M69.2326 81.4028C69.2326 81.4028 73.8637 101.041 74.1903 110.425C74.5588 120.943 70.8866 145.757 70.8866 145.757H65.6735C65.6735 145.757 65.0328 120.75 64.8025 111.17C64.5471 100.723 58.417 81.4028 58.417 81.4028H69.2326Z" fill="#937DEC"/>
<path opacity="0.1" d="M69.2326 81.4028C69.2326 81.4028 73.8637 101.041 74.1903 110.425C74.5588 120.943 70.8866 145.757 70.8866 145.757H65.6735C65.6735 145.757 65.0328 120.75 64.8025 111.17C64.5471 100.723 58.417 81.4028 58.417 81.4028H69.2326Z" fill="black"/>
<path d="M71.8873 143.684C71.9124 143.684 71.5942 145.845 71.5942 145.845H65.2547L65.083 143.914L71.8873 143.684Z" fill="#937DEC"/>
<path opacity="0.3" d="M71.8873 143.684C71.9124 143.684 71.5942 145.845 71.5942 145.845H65.2547L65.083 143.914L71.8873 143.684Z" fill="black"/>
</svg>
